<svg xmlns="http://www.w3.org/2000/svg" viewBox="0 0 64 64">
  <!-- Firefox-inspired icon -->
  <circle cx="32" cy="32" r="30" fill="#0d6efd" opacity="0.15"/>
  <circle cx="32" cy="32" r="22" fill="#1a73e8"/>
  <path d="M54 32c0 12.15-9.85 22-22 22S10 44.15 10 32 19.85 10 32 10c4.5 0 8.7 1.35 12.2 3.67C40.6 11.38 36.48 10 32 10 19.85 10 10 19.85 10 32s9.85 22 22 22 22-9.85 22-22c0-3.1-.64-6.04-1.8-8.72A21.9 21.9 0 0 1 54 32z" fill="#ff9400"/>
  <path d="M44.2 13.67C47.37 16.7 49.6 20.7 50.5 25.2c.3 1.5.45 3.05.45 4.63 0 4.12-1.12 7.97-3.07 11.27C45.4 45 40.96 48 36.3 48c-2.37 0-4.6-.7-6.5-1.93-1.3-.84-2.46-1.9-3.42-3.13C24.08 40.4 22.67 36.7 23 32.8c.28-3.23 1.7-6.1 3.88-8.28.96-.97 2.06-1.8 3.27-2.45C28.97 21.3 28 20.6 27.1 19.8c-1.83-1.6-3.22-3.6-4.1-5.8A21.9 21.9 0 0 1 32 10c4.48 0 8.6 1.38 12.2 3.67z" fill="#ff5000"/>
  <circle cx="32" cy="32" r="10" fill="white" opacity="0.9"/>
  <circle cx="32" cy="32" r="6" fill="#1a73e8"/>
</svg>
